<?xml version="1.0" standalone="no"?>
<!DOCTYPE svg PUBLIC "-//W3C//DTD SVG 20010904//EN"
 "http://www.w3.org/TR/2001/REC-SVG-20010904/DTD/svg10.dtd">
<svg version="1.0" xmlns="http://www.w3.org/2000/svg"
 width="842.000000pt" height="842.000000pt" viewBox="0 0 842.000000 842.000000"
 preserveAspectRatio="xMidYMid meet">
<metadata>
Created by potrace 1.14, written by Peter Selinger 2001-2017
</metadata>
<g transform="translate(0.000000,842.000000) scale(0.100000,-0.100000)"
fill="#000000" stroke="none">
<path d="M3158 6394 c-2 -1 -21 -5 -43 -8 -103 -16 -225 -106 -282 -209 -31
-55 -71 -149 -77 -182 -2 -11 -7 -31 -10 -45 -34 -146 -39 -410 -11 -600 3
-19 8 -53 10 -74 7 -57 14 -93 31 -165 8 -36 11 -67 7 -71 -5 -4 -46 -19 -93
-35 -47 -15 -96 -32 -110 -38 -14 -6 -27 -11 -30 -12 -49 -16 -185 -79 -188
-87 -2 -4 -10 -8 -17 -8 -7 0 -42 -16 -77 -36 -390 -220 -558 -473 -484 -728
34 -115 147 -256 288 -360 35 -25 68 -51 75 -56 7 -6 17 -10 23 -10 5 0 10 -3
10 -7 0 -5 10 -13 23 -19 12 -6 60 -31 107 -55 74 -39 166 -81 235 -109 77
-31 128 -49 183 -65 l64 -19 -6 -36 c-6 -34 -10 -60 -21 -110 -3 -14 -7 -43
-11 -65 -3 -22 -7 -51 -9 -65 -9 -59 -24 -221 -26 -285 -2 -69 13 -258 26
-320 10 -44 18 -84 19 -90 5 -23 46 -123 68 -164 51 -97 175 -193 278 -216 48
-11 178 -13 215 -4 17 5 41 10 55 13 53 11 67 15 145 46 99 39 230 109 313
166 35 24 67 44 72 44 6 0 10 3 10 8 0 4 21 21 45 37 25 17 45 33 45 38 0 4 5
7 10 7 5 0 18 8 28 17 10 10 45 41 77 68 32 28 66 58 75 67 18 19 6 26 120
-72 38 -32 100 -83 145 -118 183 -143 466 -287 604 -307 14 -2 37 -7 51 -10
49 -11 176 -6 226 10 105 31 184 91 242 181 34 54 81 162 89 204 2 14 9 45 14
70 29 129 31 440 4 600 -2 14 -7 43 -10 65 -3 22 -14 80 -23 130 l-17 90 80
26 c163 54 397 159 515 232 72 44 177 126 237 185 210 208 244 427 100 642
-49 73 -188 204 -265 251 -20 13 -39 26 -42 29 -5 6 -44 29 -152 89 -64 35
-249 113 -363 152 -120 41 -122 44 -103 114 4 17 11 50 14 75 3 25 8 48 10 51
2 4 6 28 9 55 3 27 8 65 11 84 13 80 13 396 -1 480 -24 148 -33 179 -87 287
-60 122 -169 215 -280 240 -42 9 -212 9 -258 -1 -97 -20 -285 -100 -400 -168
-118 -71 -428 -310 -438 -339 -7 -17 -28 -9 -65 27 -132 129 -372 297 -532
373 -125 60 -178 79 -272 101 -45 10 -198 21 -205 14z m129 -228 c68 -8 193
-54 290 -107 69 -37 260 -161 273 -178 3 -3 21 -18 40 -32 19 -15 46 -37 60
-49 14 -12 42 -36 63 -53 20 -17 37 -34 37 -37 0 -3 -15 -21 -33 -41 -78 -87
-163 -184 -181 -208 -11 -14 -23 -28 -26 -31 -4 -4 -161 -210 -165 -217 0 -1
-21 -5 -45 -8 -50 -6 -112 -14 -150 -20 -14 -2 -43 -6 -65 -10 -23 -3 -52 -8
-65 -10 -14 -3 -41 -8 -60 -11 -19 -3 -41 -7 -49 -10 -8 -2 -30 -7 -50 -10
-33 -5 -91 -18 -132 -30 -20 -6 -25 6 -44 100 -32 163 -40 249 -40 436 0 167
3 201 29 299 29 109 73 177 136 211 21 11 109 29 120 24 3 -1 29 -4 57 -8z
m2015 -7 c53 -21 121 -103 135 -162 1 -7 9 -37 18 -67 22 -81 28 -139 29 -300
0 -156 -6 -232 -30 -365 -2 -11 -9 -47 -14 -80 -16 -89 -10 -85 -82 -69 -35 8
-74 17 -88 19 -14 3 -47 10 -74 15 -27 6 -51 8 -54 6 -2 -3 -12 -1 -21 3 -9 5
-40 12 -70 15 -29 4 -56 8 -60 10 -3 2 -37 7 -76 10 -97 10 -126 14 -129 18
-1 2 -16 21 -32 43 -39 53 -146 189 -194 245 -21 25 -47 55 -57 66 -10 12 -42
47 -70 78 -29 31 -53 61 -53 65 0 8 113 110 139 125 9 5 21 15 26 21 61 71
382 261 490 290 17 5 35 10 40 12 67 22 175 23 227 2z m-968 -740 c48 -54 146
-175 146 -180 0 -2 -121 -4 -269 -4 l-269 0 52 65 c56 71 52 67 150 174 l69
76 41 -44 c23 -24 59 -63 80 -87z m171 -414 c82 -3 152 -8 156 -11 17 -10 174
-254 257 -399 64 -111 192 -362 192 -376 0 -25 -206 -421 -222 -427 -4 -2 -8
-8 -8 -13 0 -11 -166 -278 -195 -314 -25 -31 -33 -33 -204 -40 -241 -11 -619
-5 -693 11 -18 3 -37 22 -60 57 -18 29 -35 54 -38 57 -40 34 -370 628 -370
665 0 26 222 443 244 457 6 4 8 8 4 8 -7 0 57 107 80 135 4 6 11 17 14 25 3 8
29 47 57 86 37 54 56 72 73 72 30 0 323 14 325 16 4 3 251 -2 388 -9z m-1043
-52 c-4 -10 -38 -70 -76 -133 -84 -139 -93 -156 -141 -248 -20 -40 -40 -72
-45 -72 -4 0 -17 28 -29 63 -12 34 -25 69 -28 77 -35 91 -78 232 -74 239 3 5
22 12 42 15 20 3 42 8 50 11 8 3 28 7 44 10 94 14 248 45 253 50 10 10 11 5 4
-12z m1598 -8 c53 -11 146 -27 163 -28 9 -1 17 -5 17 -10 0 -4 4 -6 9 -3 5 3
32 0 60 -7 50 -12 51 -13 45 -42 -6 -30 -78 -248 -97 -295 -5 -14 -11 -31 -13
-38 -3 -16 -12 -27 -18 -21 -2 2 -19 33 -38 69 -67 124 -102 185 -110 188 -4
2 -8 9 -8 15 0 7 -15 35 -33 62 -18 28 -43 67 -56 88 l-23 37 39 -5 c21 -2 49
-7 63 -10z m-2180 -232 c18 -60 37 -115 41 -123 4 -8 15 -37 24 -65 10 -27 42
-109 72 -182 44 -108 52 -136 43 -152 -17 -32 -120 -292 -120 -303 0 -6 -6
-24 -14 -41 -8 -18 -25 -66 -38 -107 -12 -41 -23 -77 -24 -80 -1 -3 -5 -15 -9
-27 -4 -13 -8 -23 -9 -23 -20 0 -325 118 -340 131 -6 5 -18 9 -27 9 -10 0 -19
3 -21 8 -1 4 -32 22 -68 41 -231 120 -402 297 -402 415 1 140 170 305 466 454
39 20 73 37 76 37 3 1 16 6 30 12 51 22 85 36 95 39 6 1 46 16 90 32 44 17 85
31 90 31 6 1 26 -47 45 -106z m2845 62 c69 -25 171 -68 228 -96 109 -54 119
-59 184 -101 23 -16 46 -28 51 -28 6 0 12 -3 14 -8 2 -4 23 -23 48 -42 143
-111 218 -247 186 -335 -35 -92 -141 -207 -271 -293 -122 -81 -442 -229 -535
-247 -8 -2 -21 -5 -29 -7 -11 -2 -29 39 -67 152 -29 85 -60 171 -68 192 -9 21
-24 57 -33 81 -9 23 -25 61 -35 84 -42 97 -43 83 7 198 7 17 27 68 45 115 18
47 38 99 45 115 9 24 45 135 81 253 5 18 13 16 149 -33z m-477 -867 c6 -18 36
-105 66 -193 30 -88 53 -161 52 -163 -2 -1 -12 -4 -22 -7 -11 -2 -48 -10 -84
-19 -80 -18 -294 -56 -298 -52 -1 2 14 30 35 62 21 33 44 68 51 79 6 11 18 31
24 45 7 14 15 27 18 30 5 5 7 7 70 125 24 44 48 90 54 102 15 31 21 29 34 -9z
m-2008 -40 c18 -35 38 -73 44 -85 6 -13 14 -23 19 -23 4 0 7 -6 7 -12 0 -7 36
-71 80 -142 44 -71 79 -130 78 -132 -2 -1 -23 1 -48 6 -25 4 -61 10 -80 13
-19 3 -47 8 -62 11 -28 6 -55 11 -105 21 -68 14 -103 27 -103 38 0 7 27 91 60
187 33 96 60 176 60 178 0 1 4 2 9 2 5 0 23 -28 41 -62z m-170 -549 c25 -6 54
-13 65 -15 22 -5 104 -21 150 -29 17 -2 41 -7 55 -10 14 -3 79 -12 145 -20 66
-9 129 -18 140 -20 11 -2 52 -46 90 -96 39 -51 75 -97 80 -103 6 -6 28 -33 50
-61 47 -58 81 -97 152 -174 29 -31 53 -61 53 -67 0 -7 -19 -27 -42 -47 -24
-19 -54 -45 -68 -57 -68 -60 -307 -230 -324 -230 -4 0 -23 -10 -44 -23 -38
-24 -156 -76 -182 -81 -8 -1 -35 -8 -60 -16 -42 -12 -136 -15 -170 -7 -76 20
-119 64 -160 165 -71 176 -75 448 -11 812 18 102 11 95 81 79z m2370 -56 c8
-38 15 -77 16 -88 2 -11 6 -42 9 -70 4 -27 10 -68 15 -89 15 -67 5 -412 -13
-487 -31 -122 -72 -197 -132 -238 -51 -35 -197 -37 -275 -4 -8 3 -23 8 -33 9
-33 7 -254 118 -292 147 -5 4 -39 28 -74 52 -70 48 -251 196 -272 221 -11 14
-10 19 6 33 41 33 243 274 345 409 46 61 59 72 84 73 40 1 82 5 132 14 21 3
52 8 67 10 61 9 104 16 127 20 96 21 128 27 150 31 14 2 39 8 55 13 66 20 70
17 85 -56z m-968 -89 c-9 -13 -20 -24 -24 -24 -5 0 -8 -4 -8 -10 0 -5 -8 -18
-17 -28 -10 -10 -43 -47 -73 -82 -30 -35 -70 -81 -89 -102 -33 -37 -56 -47
-63 -29 -1 5 -28 36 -58 68 -30 33 -66 73 -80 89 -59 69 -110 132 -110 136 0
2 121 4 269 4 l269 1 -16 -23z"/>
<path d="M4197 4674 c-1 -1 -27 -5 -57 -8 -73 -9 -185 -65 -243 -123 -191
-188 -182 -496 21 -674 50 -44 170 -98 229 -103 26 -3 50 -5 53 -7 3 -1 9 -1
13 0 5 1 31 4 58 6 107 11 198 59 281 148 48 50 98 142 98 177 0 10 4 21 9 24
4 3 9 46 9 96 0 100 -26 192 -75 263 -56 80 -166 161 -248 182 -32 8 -144 23
-148 19z"/>
</g>
</svg>
